<?xml version="1.0" encoding="utf-8"?>
<!-- Generator: Adobe Illustrator 26.0.3, SVG Export Plug-In . SVG Version: 6.00 Build 0)  -->
<svg version="1.0" id="Layer_1" xmlns="http://www.w3.org/2000/svg" xmlns:xlink="http://www.w3.org/1999/xlink" x="0px" y="0px"
	 viewBox="0 0 970 732.8" style="enable-background:new 0 0 970 732.8;" xml:space="preserve">
<path d="M176,512.1c45,0,66,28.7,66,56v60.4h-28.5v-60.4c0-17.2-10-45.1-37.5-45.1s-37.6,27.8-37.6,45.1v60.4H110v-60.4
	C110,540.6,130.9,512.1,176,512.1"/>
<path d="M568,630.6c-45.1,0-66-28.7-66-56.1V514h28.4v60.5c0,17.2,10,45.1,37.6,45.1s37.5-27.8,37.5-45.1V514H634v60.5
	C634,602,613.1,630.6,568,630.6"/>
<path d="M357,620.4c-6.7,5.2-14.6,8.6-23,9.8c-28.7,4.5-68.9-14.4-70.5-56.3c-1.5-42.9,40.7-61,68.3-60.3
	C378.4,514.9,395,550,395,570v58.6h-28.7v-58.3c0-12.7-5.7-45.4-35.3-46c-29.5-0.6-38.1,26-38.2,46c0,12.7,2.7,44.1,35.9,46
	c10.2,0.6,24.6-2.2,28.4-5.7L357,620.4z"/>
<path d="M484.5,645.8c-8.5,2.7-17.6,2.9-26.2,0.6c-13.3-3.5-35.6-9.5-35.6-55.6V463.6h28.7v50.6h26.5V532h-26.5c0,0,0.7,35.8,0,64.7
	c-0.6,25.8,7.3,34.5,12.9,37.5c6.3,2.6,13.3,3,19.9,1.3L484.5,645.8z"/>
<path d="M660.9,564.4c0-28.3,14.7-48.3,40.2-50.9c18.2-1.8,24.7,1.5,24.7,1.5v11.5c-6.6-1.6-13.5-1.4-20,0.5
	c-11.5,3.6-16.3,21.3-16.3,27.3V629h-28.7L660.9,564.4z"/>
<path d="M822.1,620.4c-6.7,5.2-14.6,8.6-23,9.8c-28.7,4.5-68.9-14.4-70.4-56.3c-1.7-43,40.6-61,68.1-60.2C843.3,515,860,550,860,570
	v58.5h-28.7v-58.3c0-12.7-5.8-45.4-35.3-46s-38.1,26-38.1,46c0,12.7,2.8,44.1,35.9,46c10.2,0.6,24.7-2.2,28.4-5.7L822.1,620.4z"/>
<path d="M467.9,133.6C457,154.7,444.2,200,444.2,200s-1.1,3.4-3.5-0.5c-1.5-2.5-19.7-27.3-28.7-38.4c-10.5-12.8-57.2-62-110.8-34.1
	c-48.3,25.3-29.8,86.8-14.9,110c9,14,26.4,36,31.3,42.1c0.9,1.1,0.6,1.5-0.8,1.1c-4.1-1.1-14.9-4-34.5-9
	c-17.7-4.5-34.8-3.9-39.9,3.8c-3.6,5.8-5.8,14.1,1.3,27.2c14.2,25.6,53.3,66.2,117.4,79.5c1.3,0,1.1,1.3,0,3.2
	c-3.2,5.2-2.8,11.8,0.9,16.5c9.6,11.5,20.2,15.7,62.7,23c59.2,10.2,80-9.9,82.4-12.5c0.2-0.1,0.5-0.1,0.7,0
	c30.6,7.2,62.8,4.2,91.6-8.5c41.2-17.2,56.9-33.4,57.5-43.1s-21.3-7.8-27.6-9.4c-2-0.5-1.4-1.4,0-2.1c2.9-1.8,10.2-4.8,16-7.9
	s66.2-33.4,78.1-84.7s-34.5-51.8-59.5-41c-25,10.7-48.5,22.4-53.8,24.9c-0.9,0.4-1.1,0-0.7-0.8c6.6-16.1,12-32.7,16.1-49.7
	c5.2-24.4,2.8-91-63.2-103.4c-4.8-0.9-9.6-1.3-14.5-1.3C514.2,85,483.4,103.8,467.9,133.6 M470.5,238.2c5.2-14.6,7-22.2,15.6-50.4
	c10.7-35.2,33.9-62.8,71.3-51.7c43.8,13.4,33.6,57.5,26.5,75.7c-5.8,14.5-10.2,29.3-19.6,53.3c-7.5,19.5,8.6,20,17.2,18.1
	c9.8-2.2,38.3-16.9,56.2-25.3c13.3-6.1,37.8-20.9,51.7-6.5c13.9,14.4-1.7,39.3-18.4,54.2s-61,33.5-74.7,39s-18.8,13.3-12.1,17.5
	s26.3,7.6,32.2,8.4c4.9,0.6,9.7,1.8,9.7,5.2c0,4.3-11.5,13-38.5,22.1c-18.2,5.7-37.3,7.6-56.2,5.8c-23.6-4.4-27.3-8.2-38.3-4
	c-8.2,3.3-8.9,9.8-20.7,14.5s-29.4,3.7-42.9,1.4s-36.9-4.5-39.3-15.2c-1-4.3,3.7-7,7.6-11.5s7.3-12.6-9.6-16.2
	c-4.5-0.9-51.4-8.4-80.4-23s-40.2-37.8-37.4-46c2.5-6.6,9.1-7.2,18-5.7c10.3,2,55.2,14.2,68.9,14.4c5.7,0,9.9-1.1,11.9-4.5
	c5.3-9.3-11-20.5-24.5-36.8c-19.4-23-56.4-61.6-28.7-96.1c18.4-23,54.8-7.9,69.9,9.6c11.5,13.5,31.7,41,47.2,59.6
	c4.4,6.2,11.4,10.2,19,10.8c7.8,0,14.8-5.7,18.8-17.2"/>
</svg>
